<svg height="2110" width="720" xmlns="http://www.w3.org/2000/svg">
<rect height="2110" fill="#555" width="720"></rect>
<text fill="#7f7" font-family="Courier New" font-size="12" xml:space="preserve">
<tspan x="10" y="26">10 megabytes installed</tspan>
<tspan x="10" y="42"></tspan>
<tspan x="10" y="58">node_modules</tspan>
<tspan x="10" y="74">├── UNMET PEER DEPENDENCY grunt@&gt;=0.4.0</tspan>
<tspan x="10" y="90">└─┬ grunt-html2js@0.3.8 </tspan>
<tspan x="10" y="106">  ├─┬ chokidar@1.6.1 </tspan>
<tspan x="10" y="122">  │ ├─┬ anymatch@1.3.0 </tspan>
<tspan x="10" y="138">  │ │ ├── arrify@1.0.1 </tspan>
<tspan x="10" y="154">  │ │ └─┬ micromatch@2.3.11 </tspan>
<tspan x="10" y="170">  │ │   ├─┬ arr-diff@2.0.0 </tspan>
<tspan x="10" y="186">  │ │   │ └── arr-flatten@1.0.3 </tspan>
<tspan x="10" y="202">  │ │   ├── array-unique@0.2.1 </tspan>
<tspan x="10" y="218">  │ │   ├─┬ braces@1.8.5 </tspan>
<tspan x="10" y="234">  │ │   │ ├─┬ expand-range@1.8.2 </tspan>
<tspan x="10" y="250">  │ │   │ │ └─┬ fill-range@2.2.3 </tspan>
<tspan x="10" y="266">  │ │   │ │   ├── is-number@2.1.0 </tspan>
<tspan x="10" y="282">  │ │   │ │   ├── isobject@2.1.0 </tspan>
<tspan x="10" y="298">  │ │   │ │   ├── randomatic@1.1.6 </tspan>
<tspan x="10" y="314">  │ │   │ │   └── repeat-string@1.6.1 </tspan>
<tspan x="10" y="330">  │ │   │ ├── preserve@0.2.0 </tspan>
<tspan x="10" y="346">  │ │   │ └── repeat-element@1.1.2 </tspan>
<tspan x="10" y="362">  │ │   ├─┬ expand-brackets@0.1.5 </tspan>
<tspan x="10" y="378">  │ │   │ └── is-posix-bracket@0.1.1 </tspan>
<tspan x="10" y="394">  │ │   ├── extglob@0.3.2 </tspan>
<tspan x="10" y="410">  │ │   ├── filename-regex@2.0.0 </tspan>
<tspan x="10" y="426">  │ │   ├─┬ kind-of@3.1.0 </tspan>
<tspan x="10" y="442">  │ │   │ └── is-buffer@1.1.5 </tspan>
<tspan x="10" y="458">  │ │   ├─┬ normalize-path@2.1.1 </tspan>
<tspan x="10" y="474">  │ │   │ └── remove-trailing-separator@1.0.1 </tspan>
<tspan x="10" y="490">  │ │   ├─┬ object.omit@2.0.1 </tspan>
<tspan x="10" y="506">  │ │   │ ├─┬ for-own@0.1.5 </tspan>
<tspan x="10" y="522">  │ │   │ │ └── for-in@1.0.2 </tspan>
<tspan x="10" y="538">  │ │   │ └── is-extendable@0.1.1 </tspan>
<tspan x="10" y="554">  │ │   ├─┬ parse-glob@3.0.4 </tspan>
<tspan x="10" y="570">  │ │   │ ├── glob-base@0.3.0 </tspan>
<tspan x="10" y="586">  │ │   │ └── is-dotfile@1.0.2 </tspan>
<tspan x="10" y="602">  │ │   └─┬ regex-cache@0.4.3 </tspan>
<tspan x="10" y="618">  │ │     ├── is-equal-shallow@0.1.3 </tspan>
<tspan x="10" y="634">  │ │     └── is-primitive@2.0.0 </tspan>
<tspan x="10" y="650">  │ ├── async-each@1.0.1 </tspan>
<tspan x="10" y="666">  │ ├── glob-parent@2.0.0 </tspan>
<tspan x="10" y="682">  │ ├── inherits@2.0.3 </tspan>
<tspan x="10" y="698">  │ ├─┬ is-binary-path@1.0.1 </tspan>
<tspan x="10" y="714">  │ │ └── binary-extensions@1.8.0 </tspan>
<tspan x="10" y="730">  │ ├─┬ is-glob@2.0.1 </tspan>
<tspan x="10" y="746">  │ │ └── is-extglob@1.0.0 </tspan>
<tspan x="10" y="762">  │ ├── path-is-absolute@1.0.1 </tspan>
<tspan x="10" y="778">  │ └─┬ readdirp@2.1.0 </tspan>
<tspan x="10" y="794">  │   ├── graceful-fs@4.1.11 </tspan>
<tspan x="10" y="810">  │   ├─┬ minimatch@3.0.3 </tspan>
<tspan x="10" y="826">  │   │ └─┬ brace-expansion@1.1.7 </tspan>
<tspan x="10" y="842">  │   │   ├── balanced-match@0.4.2 </tspan>
<tspan x="10" y="858">  │   │   └── concat-map@0.0.1 </tspan>
<tspan x="10" y="874">  │   ├─┬ readable-stream@2.2.9 </tspan>
<tspan x="10" y="890">  │   │ ├── buffer-shims@1.0.0 </tspan>
<tspan x="10" y="906">  │   │ ├── core-util-is@1.0.2 </tspan>
<tspan x="10" y="922">  │   │ ├── isarray@1.0.0 </tspan>
<tspan x="10" y="938">  │   │ ├── process-nextick-args@1.0.7 </tspan>
<tspan x="10" y="954">  │   │ ├── string_decoder@1.0.0 </tspan>
<tspan x="10" y="970">  │   │ └── util-deprecate@1.0.2 </tspan>
<tspan x="10" y="986">  │   └── set-immediate-shim@1.0.1 </tspan>
<tspan x="10" y="1002">  ├─┬ html-minifier@3.0.3 </tspan>
<tspan x="10" y="1018">  │ ├─┬ change-case@3.0.1 </tspan>
<tspan x="10" y="1034">  │ │ ├── camel-case@3.0.0 </tspan>
<tspan x="10" y="1050">  │ │ ├── constant-case@2.0.0 </tspan>
<tspan x="10" y="1066">  │ │ ├── dot-case@2.1.1 </tspan>
<tspan x="10" y="1082">  │ │ ├── header-case@1.0.1 </tspan>
<tspan x="10" y="1098">  │ │ ├── is-lower-case@1.1.3 </tspan>
<tspan x="10" y="1114">  │ │ ├── is-upper-case@1.1.2 </tspan>
<tspan x="10" y="1130">  │ │ ├── lower-case@1.1.4 </tspan>
<tspan x="10" y="1146">  │ │ ├── lower-case-first@1.0.2 </tspan>
<tspan x="10" y="1162">  │ │ ├── no-case@2.3.1 </tspan>
<tspan x="10" y="1178">  │ │ ├── param-case@2.1.1 </tspan>
<tspan x="10" y="1194">  │ │ ├── pascal-case@2.0.1 </tspan>
<tspan x="10" y="1210">  │ │ ├── path-case@2.1.1 </tspan>
<tspan x="10" y="1226">  │ │ ├── sentence-case@2.1.1 </tspan>
<tspan x="10" y="1242">  │ │ ├── snake-case@2.1.0 </tspan>
<tspan x="10" y="1258">  │ │ ├── swap-case@1.1.2 </tspan>
<tspan x="10" y="1274">  │ │ ├── title-case@2.1.1 </tspan>
<tspan x="10" y="1290">  │ │ ├── upper-case@1.1.3 </tspan>
<tspan x="10" y="1306">  │ │ └── upper-case-first@1.1.2 </tspan>
<tspan x="10" y="1322">  │ ├─┬ clean-css@3.4.25 </tspan>
<tspan x="10" y="1338">  │ │ ├── commander@2.8.1 </tspan>
<tspan x="10" y="1354">  │ │ └─┬ source-map@0.4.4 </tspan>
<tspan x="10" y="1370">  │ │   └── amdefine@1.0.1 </tspan>
<tspan x="10" y="1386">  │ ├─┬ commander@2.9.0 </tspan>
<tspan x="10" y="1402">  │ │ └── graceful-readlink@1.0.1 </tspan>
<tspan x="10" y="1418">  │ ├── he@1.1.1 </tspan>
<tspan x="10" y="1434">  │ ├─┬ ncname@1.0.0 </tspan>
<tspan x="10" y="1450">  │ │ └── xml-char-classes@1.0.0 </tspan>
<tspan x="10" y="1466">  │ ├── relateurl@0.2.7 </tspan>
<tspan x="10" y="1482">  │ └─┬ uglify-js@2.7.5 </tspan>
<tspan x="10" y="1498">  │   ├── async@0.2.10 </tspan>
<tspan x="10" y="1514">  │   ├── source-map@0.5.6 </tspan>
<tspan x="10" y="1530">  │   ├── uglify-to-browserify@1.0.2 </tspan>
<tspan x="10" y="1546">  │   └─┬ yargs@3.10.0 </tspan>
<tspan x="10" y="1562">  │     ├── camelcase@1.2.1 </tspan>
<tspan x="10" y="1578">  │     ├─┬ cliui@2.1.0 </tspan>
<tspan x="10" y="1594">  │     │ ├─┬ center-align@0.1.3 </tspan>
<tspan x="10" y="1610">  │     │ │ ├─┬ align-text@0.1.4 </tspan>
<tspan x="10" y="1626">  │     │ │ │ └── longest@1.0.1 </tspan>
<tspan x="10" y="1642">  │     │ │ └── lazy-cache@1.0.4 </tspan>
<tspan x="10" y="1658">  │     │ ├── right-align@0.1.3 </tspan>
<tspan x="10" y="1674">  │     │ └── wordwrap@0.0.2 </tspan>
<tspan x="10" y="1690">  │     ├── decamelize@1.2.0 </tspan>
<tspan x="10" y="1706">  │     └── window-size@0.1.0 </tspan>
<tspan x="10" y="1722">  └─┬ jade@1.11.0 </tspan>
<tspan x="10" y="1738">    ├── character-parser@1.2.1 </tspan>
<tspan x="10" y="1754">    ├── commander@2.6.0 </tspan>
<tspan x="10" y="1770">    ├─┬ constantinople@3.0.2 </tspan>
<tspan x="10" y="1786">    │ └── acorn@2.7.0 </tspan>
<tspan x="10" y="1802">    ├─┬ jstransformer@0.0.2 </tspan>
<tspan x="10" y="1818">    │ ├── is-promise@2.1.0 </tspan>
<tspan x="10" y="1834">    │ └─┬ promise@6.1.0 </tspan>
<tspan x="10" y="1850">    │   └── asap@1.0.0 </tspan>
<tspan x="10" y="1866">    ├─┬ mkdirp@0.5.1 </tspan>
<tspan x="10" y="1882">    │ └── minimist@0.0.8 </tspan>
<tspan x="10" y="1898">    ├─┬ transformers@2.1.0 </tspan>
<tspan x="10" y="1914">    │ ├─┬ css@1.0.8 </tspan>
<tspan x="10" y="1930">    │ │ ├── css-parse@1.0.4 </tspan>
<tspan x="10" y="1946">    │ │ └── css-stringify@1.0.5 </tspan>
<tspan x="10" y="1962">    │ ├─┬ promise@2.0.0 </tspan>
<tspan x="10" y="1978">    │ │ └── is-promise@1.0.1 </tspan>
<tspan x="10" y="1994">    │ └─┬ uglify-js@2.2.5 </tspan>
<tspan x="10" y="2010">    │   ├── optimist@0.3.7 </tspan>
<tspan x="10" y="2026">    │   └── source-map@0.1.43 </tspan>
<tspan x="10" y="2042">    ├── void-elements@2.0.1 </tspan>
<tspan x="10" y="2058">    └─┬ with@4.0.3 </tspan>
<tspan x="10" y="2074">      ├── acorn@1.2.2 </tspan>
<tspan x="10" y="2090">      └── acorn-globals@1.0.9</tspan>
</text>
</svg>
